<svg xmlns="http://www.w3.org/2000/svg" display="none">

	<symbol id="done" viewBox="0 0 24 24">
		<path d="M0 0h24v24H0V0z" fill="none"/>
		<path d="M9 16.2l-3.5-3.5c-.39-.39-1.01-.39-1.4 0-.39.39-.39 1.01 0 1.4l4.19 4.19c.39.39 1.02.39 1.41 0L20.3 7.7c.39-.39.39-1.01 0-1.4-.39-.39-1.01-.39-1.4 0L9 16.2z"/>
	</symbol>

	<symbol id="playing" viewBox="0 0 24 24">
		<path d="M8 6.82v10.36c0 .79.87 1.27 1.54.84l8.14-5.18c.62-.39.62-1.29 0-1.69L9.54 5.98C8.87 5.55 8 6.03 8 6.82z"/>
	</symbol>

	<symbol id="next" viewBox="0 0 24 24">
		<path d="M0 0h24v24H0V0z" fill="none"/>
		<path d="M6 10c-1.1 0-2 .9-2 2s.9 2 2 2 2-.9 2-2-.9-2-2-2zm12 0c-1.1 0-2 .9-2 2s.9 2 2 2 2-.9 2-2-.9-2-2-2zm-6 0c-1.1 0-2 .9-2 2s.9 2 2 2 2-.9 2-2-.9-2-2-2z"/>
	</symbol>

</svg>
